<svg width="120" height="120" viewBox="0 0 120 120" fill="none" xmlns="http://www.w3.org/2000/svg">
<path d="M54.5865 39.2603L40.1949 54.6338C37.5344 57.4773 37.5388 61.9286 40.1949 64.7721L54.5865 80.1456L60.6778 73.6347L47.6364 59.7007L60.6778 45.7667L54.5865 39.2559V39.2603Z" fill="white"/>
<path d="M104.347 56.0531C107.538 56.0531 109.185 52.244 107.007 49.9143L104.422 47.155L81.2032 22.3474C79.8088 20.8548 77.8344 20 75.7936 20C73.7529 20 71.7785 20.8548 70.3841 22.3474L62.6992 30.559L55.0142 22.3474C53.6198 20.8548 51.6454 20 49.6046 20C47.5639 20 45.5895 20.8548 44.1951 22.3474L13.9954 54.6136C11.3349 57.4571 11.3349 61.9084 13.9954 64.7519L44.1951 97.0181C45.5895 98.5107 47.5639 99.3655 49.6046 99.3655C51.6454 99.3655 53.6198 98.5107 55.0142 97.0181L62.6992 88.8109L70.3841 97.0225C71.7785 98.5151 73.7529 99.3699 75.7936 99.3699C77.8344 99.3699 79.8088 98.5151 81.2032 97.0225L104.422 72.215L107.007 69.4556C109.19 67.1259 107.538 63.3169 104.347 63.3169H77.7282C75.5901 63.3169 73.5493 64.2027 72.0885 65.7617L66.0458 72.215L62.6948 75.7937L56.6035 82.3045L49.6002 89.7853L21.4325 59.6938L49.6002 29.5979L56.6035 37.0787L62.6948 43.5895L66.0458 47.1683L72.084 53.6215C73.5449 55.1806 75.5856 56.0664 77.7238 56.0664H104.342L104.347 56.0531ZM68.7905 82.2912L78.2328 72.2017H90.7652C91.3229 72.2017 91.6107 72.8661 91.23 73.2735L75.7892 89.7676L68.7861 82.2868L68.7905 82.2912ZM91.23 46.0787C91.6107 46.4862 91.3229 47.1505 90.7652 47.1505H78.2328L68.7905 37.061L75.7936 29.5802L91.2344 46.0743L91.23 46.0787Z" fill="white"/>
</svg>
