<svg width="120" height="120" viewBox="0 0 120 120" fill="none" xmlns="http://www.w3.org/2000/svg">
<path d="M99.9867 12H83.9961C81.872 12 79.8403 12.8502 78.3385 14.351C76.8367 15.8517 75.9931 17.8851 75.988 20.0107V36.0013C75.988 37.0513 75.7823 38.0961 75.3811 39.0642C74.9799 40.0373 74.3936 40.9183 73.6478 41.661C72.9072 42.4037 72.0225 42.9927 71.0504 43.3973C70.0783 43.802 69.0394 44.0068 67.9901 44.0068H51.9841C49.86 44.0068 47.8283 43.1566 46.3316 41.6559C44.8349 40.1552 43.9914 38.1166 43.9914 35.9962V20.0107C43.9914 17.8902 43.1479 15.8517 41.6512 14.351C40.1545 12.8502 38.1178 12.0051 35.9987 12H19.9927C17.8685 12 15.8369 12.8502 14.3402 14.351C12.8435 15.8517 12 17.8902 12 20.0107V36.0013C12 37.0513 12.2057 38.0961 12.6069 39.0642C13.0081 40.0373 13.5944 40.9183 14.3402 41.661C15.0808 42.4037 15.9655 42.9927 16.9376 43.3973C17.9097 43.802 18.9486 44.0068 19.9979 44.0068H36.0039C38.1229 44.0068 40.1597 44.8468 41.6564 46.3475C43.1582 47.8483 43.9966 49.8817 43.9966 52.0021V68.0081C43.9966 70.1286 43.1531 72.162 41.6564 73.6627C40.1545 75.1634 38.1229 76.0034 36.0039 76.0034H19.9979C17.8788 76.0034 15.8421 76.8434 14.3454 78.3441C12.8435 79.8449 12.0051 81.8783 12.0051 83.9987V100.005C12.0051 102.125 12.8486 104.159 14.3454 105.659C15.8472 107.16 17.8788 108 19.9979 108H36.0039C38.1229 108 40.1597 107.16 41.6564 105.659C43.1582 104.159 43.9966 102.125 43.9966 100.005V83.9987C43.9966 81.8783 44.8401 79.8449 46.3368 78.3441C47.8386 76.8434 49.8702 76.0034 51.9893 76.0034H67.9953C70.1143 76.0034 72.1511 76.8434 73.6478 78.3441C75.1496 79.8449 75.988 81.8783 75.988 83.9987V100.005C75.988 102.125 76.8367 104.159 78.3385 105.659C79.8403 107.16 81.8771 108 83.9961 108H99.9867C101.036 108 102.08 107.795 103.052 107.396C104.024 106.996 104.909 106.407 105.649 105.664C106.395 104.922 106.982 104.041 107.388 103.068C107.789 102.1 108 101.055 108 100.005V83.9987C108 82.9487 107.794 81.909 107.388 80.9358C106.987 79.9678 106.395 79.0817 105.649 78.339C104.904 77.5963 104.024 77.0073 103.052 76.6078C102.08 76.2083 101.041 76.0034 99.9867 76.0034H83.9961C81.872 76.0034 79.8403 75.1634 78.3385 73.6627C76.8367 72.162 75.9931 70.1286 75.988 68.0081V52.0021C75.988 49.8817 76.8367 47.8483 78.3385 46.3475C79.8403 44.8468 81.8771 44.0068 83.9961 44.0068H99.9867C101.041 44.0068 102.08 43.802 103.052 43.4024C104.024 43.0029 104.909 42.4088 105.655 41.6661C106.4 40.9234 106.987 40.0373 107.388 39.0642C107.789 38.091 107.995 37.0513 107.995 35.9962V20.0107C107.995 17.8851 107.151 15.8466 105.649 14.3458C104.148 12.8451 102.111 12 99.9867 12Z" fill="white"/>
</svg>
