<svg width="120" height="120" viewBox="0 0 120 120" fill="none" xmlns="http://www.w3.org/2000/svg">
<path d="M107.961 14.4483V94.2064C107.961 95.5613 106.862 96.6601 105.508 96.6601H71.4953C68.9897 96.6601 66.9638 94.6278 66.9638 92.1262C66.9638 89.6193 68.995 87.5924 71.4953 87.5924H96.4397C97.7938 87.5924 98.8924 86.4936 98.8924 85.1388V23.5266C98.8924 22.1718 97.7938 21.073 96.4397 21.073H34.8547C33.5005 21.073 32.402 22.1718 32.402 23.5266V48.9801C32.402 51.4871 30.3709 53.5139 27.8706 53.5139C25.3649 53.5139 23.3391 51.4817 23.3391 48.9801V14.4536C23.3391 13.0988 24.4376 12 25.7917 12H105.508C106.862 12 107.961 13.0988 107.961 14.4536V14.4483ZM54.6757 61.1308H16.1691C13.8661 61.1308 12 62.9977 12 65.3019V103.829C12 106.133 13.8661 108 16.1691 108H54.6757C56.9787 108 58.8448 106.133 58.8448 103.829V65.3019C58.8448 62.9977 56.9787 61.1308 54.6757 61.1308ZM23.8566 70.2038H46.9934C48.5341 70.2038 49.7818 71.4519 49.7818 72.9935V96.1427C49.7818 97.6842 48.5341 98.9323 46.9934 98.9323H23.8566C22.3159 98.9323 21.0681 97.6842 21.0681 96.1427V72.9935C21.0681 71.4519 22.3159 70.2038 23.8566 70.2038Z" fill="white"/>
<path d="M87.597 50.6009L82.8364 45.8377C82.0901 45.091 82.0901 43.8802 82.8364 43.1281L89.5165 36.45C90.2629 35.7033 90.2629 34.4871 89.5165 33.7404L85.8966 30.1187C85.1503 29.3719 83.9401 29.3719 83.1884 30.1187L76.5135 36.7967C75.7672 37.5435 74.557 37.5435 73.8053 36.7967L69.0447 32.0335C67.9625 30.9507 66.1075 31.5161 65.8143 33.0203L61.2984 56.1002C61.0372 57.4337 62.21 58.6071 63.5428 58.3458L86.6161 53.828C88.1195 53.5346 88.6844 51.6784 87.6022 50.5956L87.597 50.6009Z" fill="white"/>
</svg>
