<svg width="120" height="120" viewBox="0 0 120 120" fill="none" xmlns="http://www.w3.org/2000/svg">
<path d="M103.787 48.9821L80.0458 25.2245C74.4161 19.5918 65.2613 19.5918 59.6316 25.2245L23.3916 61.4833C20.6694 64.2069 19.1695 67.8355 19.1695 71.6935C19.1695 75.5516 20.6694 79.1802 23.3916 81.9038L34.4746 92.9924H15.3751C13.5133 92.9924 12 94.5065 12 96.3694C12 98.2322 13.5133 99.7463 15.3751 99.7463H72.0513C72.1616 99.7463 72.2719 99.7419 72.3778 99.7286C72.4175 99.7286 72.4528 99.7198 72.4925 99.7154C72.5631 99.7066 72.6337 99.6977 72.6778 99.6889C72.7264 99.6801 72.7704 99.6712 72.8145 99.658C72.8851 99.6403 72.9514 99.6271 73.022 99.605L73.119 99.5741C73.1896 99.552 73.2558 99.5256 73.3087 99.5035L73.419 99.4549C73.4896 99.424 73.5602 99.3887 73.622 99.3578L73.6881 99.3225C73.7631 99.2784 73.8425 99.2342 73.9264 99.1768L74.0278 99.1018C74.0852 99.0621 74.1382 99.0179 74.1823 98.987C74.2661 98.9164 74.35 98.8414 74.4338 98.7575L99.2158 73.9625L99.2864 73.8963C99.2864 73.8963 99.3305 73.8521 99.3482 73.8301L103.778 69.3981C106.5 66.6745 108 63.0504 108 59.1879C108 55.3254 106.5 51.7013 103.778 48.9777L103.787 48.9821ZM72.0513 91.6019L53.5475 73.0885C52.8592 72.3998 51.8754 72.0467 50.918 72.2321C50.4547 72.3204 49.9694 72.5102 49.4708 72.8324C48.4914 73.4593 47.9134 74.5584 47.909 75.7238C47.909 76.5404 48.2311 77.3262 48.809 77.9044L63.898 93.0013H44.0176L28.161 77.1363C25.1609 74.1346 25.1609 69.2657 28.161 66.264L32.6656 61.757L37.713 66.8069C38.4233 67.394 39.3762 67.703 40.3954 67.5618C41.8778 67.3543 43.0779 66.1536 43.2941 64.6748C43.3073 64.5777 43.3206 64.4806 43.325 64.3835C43.3868 63.4344 42.972 62.5163 42.3014 61.8453L37.4394 56.9808L57.5183 36.8914L92.1213 71.517L72.0424 91.6064L72.0513 91.6019ZM99.0129 64.6263L96.9039 66.7363L62.3009 32.1107L64.4054 30.0051C67.4011 27.0078 72.2763 27.0078 75.272 30.0051L99.0129 53.7628C100.46 55.2106 101.259 57.1397 101.259 59.1967C101.259 61.2538 100.46 63.1828 99.0129 64.6307V64.6263Z" fill="white"/>
</svg>
