<svg width="120" height="120" viewBox="0 0 120 120" fill="none" xmlns="http://www.w3.org/2000/svg">
<path d="M59.9744 38.1804H75.6303L35.0703 78.7617C33.3698 80.4204 33.3698 83.2151 35.0703 84.9164C36.7707 86.6178 39.5213 86.6178 41.2217 84.9164L81.7818 44.3351V59.9991C81.7818 62.3991 83.7435 64.3617 86.1423 64.3617C88.541 64.3617 90.5025 62.3991 90.5025 59.9991V33.8177C90.5025 31.4177 88.541 29.4551 86.1423 29.4551H59.9744C57.5757 29.4551 55.6142 31.4177 55.6142 33.8177C55.6142 36.2177 57.5757 38.1804 59.9744 38.1804Z" fill="white"/>
<path d="M103.588 12H33.8054C31.4067 12 29.4449 13.9627 29.4449 16.3627V41.6427H16.3585C13.9598 41.6427 11.998 43.6053 11.998 46.0053V103.637C11.998 106.037 13.9598 108 16.3585 108H73.9605C76.3592 108 78.3207 106.037 78.3207 103.637V90.544H103.588C105.986 90.544 107.948 88.5813 107.948 86.1813V16.3627C107.948 13.9627 105.986 12 103.588 12ZM99.2272 81.8187H59.973C57.5742 81.8187 55.6128 83.7813 55.6128 86.1813C55.6128 88.5813 57.5742 90.544 59.973 90.544H69.6V99.2693H20.7242V50.368H29.4449V60C29.4449 62.4 31.4067 64.3627 33.8054 64.3627C36.2041 64.3627 38.1659 62.4 38.1659 60V20.7253H99.2272V81.8187Z" fill="white"/>
</svg>
